<svg width="9" height="44" viewBox="0 0 9 44" fill="none" xmlns="http://www.w3.org/2000/svg">
<path d="M8.08 40.91C8.08 41.4367 8 41.9467 7.84 42.44C7.67333 42.9267 7.46 43.31 7.2 43.59L6.42 43.22C6.66 42.9533 6.85667 42.6133 7.01 42.2C7.15667 41.78 7.23 41.35 7.23 40.91C7.23 40.33 7.13333 39.8967 6.94 39.61C6.74 39.3233 6.47667 39.18 6.15 39.18C5.91 39.18 5.71667 39.26 5.57 39.42C5.41667 39.5733 5.3 39.7667 5.22 40C5.14 40.2267 5.05 40.55 4.95 40.97C4.82333 41.4967 4.69667 41.9233 4.57 42.25C4.44333 42.57 4.25 42.8467 3.99 43.08C3.72333 43.3067 3.36667 43.42 2.92 43.42C2.54667 43.42 2.21 43.3233 1.91 43.13C1.61 42.93 1.37 42.63 1.19 42.23C1.01 41.83 0.92 41.3333 0.92 40.74C0.92 40.3267 0.973333 39.92 1.08 39.52C1.18667 39.12 1.34 38.7767 1.54 38.49L2.34 38.82C2.15333 39.1133 2.01333 39.4267 1.92 39.76C1.82 40.0933 1.77 40.42 1.77 40.74C1.77 41.3067 1.87333 41.7333 2.08 42.02C2.28667 42.3 2.55333 42.44 2.88 42.44C3.12 42.44 3.31667 42.36 3.47 42.2C3.61667 42.04 3.73333 41.8433 3.82 41.61C3.9 41.37 3.98667 41.0467 4.08 40.64C4.20667 40.1133 4.33333 39.69 4.46 39.37C4.58667 39.05 4.78 38.7767 5.04 38.55C5.3 38.3167 5.65 38.2 6.09 38.2C6.45667 38.2 6.79333 38.3 7.1 38.5C7.4 38.7 7.64 39.0033 7.82 39.41C7.99333 39.8167 8.08 40.3167 8.08 40.91ZM8.08 33.0091C8.08 33.7091 7.92667 34.3424 7.62 34.9091C7.30667 35.4691 6.88 35.9091 6.34 36.2291C5.79333 36.5491 5.18 36.7091 4.5 36.7091C3.82 36.7091 3.21 36.5491 2.67 36.2291C2.12333 35.9091 1.69667 35.4657 1.39 34.8991C1.07667 34.3324 0.92 33.6991 0.919999 32.9991C0.919999 32.4524 1.01333 31.9524 1.2 31.4991C1.38 31.0457 1.65 30.6591 2.01 30.3391L2.64 30.9891C2.08667 31.5157 1.81 32.1724 1.81 32.9591C1.81 33.4791 1.92667 33.9491 2.16 34.3691C2.39333 34.7891 2.71667 35.1191 3.13 35.3591C3.53667 35.5924 3.99333 35.7091 4.5 35.7091C5.00667 35.7091 5.46667 35.5924 5.88 35.3591C6.28667 35.1191 6.60667 34.7891 6.84 34.3691C7.07333 33.9491 7.19 33.4791 7.19 32.9591C7.19 32.1791 6.91 31.5224 6.35 30.9891L6.98 30.3391C7.34 30.6591 7.61333 31.0491 7.8 31.5091C7.98667 31.9624 8.08 32.4624 8.08 33.0091ZM8 23.6325L5.85 25.1425C5.86333 25.3292 5.87 25.4758 5.87 25.5825L5.87 27.3125L8 27.3125L8 28.3125L0.999999 28.3125L0.999999 25.5825C0.999999 24.6758 1.21667 23.9625 1.65 23.4425C2.08333 22.9225 2.68 22.6625 3.44 22.6625C3.98 22.6625 4.44 22.7958 4.82 23.0625C5.2 23.3292 5.47667 23.7092 5.65 24.2025L8 22.5425L8 23.6325ZM5.02 25.6125C5.02 24.9792 4.88333 24.4958 4.61 24.1625C4.33667 23.8292 3.94667 23.6625 3.44 23.6625C2.93333 23.6625 2.54667 23.8292 2.28 24.1625C2.00667 24.4958 1.87 24.9792 1.87 25.6125L1.87 27.3125L5.02 27.3125L5.02 25.6125ZM8.08 17.2869C8.08 17.9935 7.92667 18.6302 7.62 19.1969C7.30667 19.7635 6.87667 20.2102 6.33 20.5369C5.78333 20.8569 5.17333 21.0169 4.5 21.0169C3.82667 21.0169 3.21667 20.8569 2.67 20.5369C2.12333 20.2102 1.69667 19.7635 1.39 19.1969C1.07667 18.6302 0.919999 17.9935 0.919999 17.2869C0.919999 16.5869 1.07667 15.9535 1.39 15.3869C1.69667 14.8202 2.12333 14.3769 2.67 14.0569C3.21 13.7369 3.82 13.5769 4.5 13.5769C5.18 13.5769 5.79333 13.7369 6.34 14.0569C6.88 14.3769 7.30667 14.8202 7.62 15.3869C7.92667 15.9535 8.08 16.5869 8.08 17.2869ZM7.19 17.2869C7.19 16.7735 7.07333 16.3135 6.84 15.9069C6.60667 15.4935 6.28667 15.1702 5.88 14.9369C5.46667 14.6969 5.00667 14.5769 4.5 14.5769C3.99333 14.5769 3.53667 14.6969 3.13 14.9369C2.71667 15.1702 2.39333 15.4935 2.16 15.9069C1.92667 16.3135 1.81 16.7735 1.81 17.2869C1.81 17.8002 1.92667 18.2669 2.16 18.6869C2.39333 19.1002 2.71667 19.4269 3.13 19.6669C3.53667 19.9002 3.99333 20.0169 4.5 20.0169C5.00667 20.0169 5.46667 19.9002 5.88 19.6669C6.28667 19.4269 6.60667 19.1002 6.84 18.6869C7.07333 18.2669 7.19 17.8002 7.19 17.2869ZM0.999998 11.4484L0.999998 10.4484L7.13 10.4484L7.13 6.65844L8 6.65844L8 11.4484L0.999998 11.4484ZM0.999998 4.91094L0.999998 3.91094L7.13 3.91094L7.13 0.120937L8 0.120937L8 4.91094L0.999998 4.91094Z" fill="black"/>
</svg>
