<svg width="83" height="33" viewBox="0 0 83 33" fill="none" xmlns="http://www.w3.org/2000/svg">
<path d="M64.3715 9.73021C64.2361 9.30613 64.0668 8.95273 63.8636 8.63467C63.017 7.46844 61.561 7.0797 60.1388 6.69096C59.1906 6.44357 58.1748 6.16085 57.5314 5.70143C56.8542 5.20667 56.3124 4.32316 55.7706 3.43966C54.9579 2.16741 54.1452 0.859822 52.7907 0.4004C51.4024 -0.0590231 49.9463 0.54176 48.558 1.14254C47.6437 1.53129 46.7633 1.92003 45.9845 1.92003H45.9506C45.2057 1.92003 44.3591 1.56663 43.4449 1.21322L43.3771 1.17788C41.9888 0.612441 40.5666 0.0469976 39.1782 0.54176C37.8238 1.00118 37.0111 2.37945 36.2323 3.68704C36.0968 3.89908 35.9952 4.11112 35.8598 4.28782C27.7668 6.97368 22.3489 14.6778 22.3489 23.4775V26.2694C22.3489 29.1673 24.6176 31.5351 27.3943 31.5351H64.507C67.2836 31.5351 69.5524 29.1673 69.5524 26.2694V23.4069C69.5863 18.3179 67.7238 13.4409 64.3715 9.73021ZM61.0531 30.0862H27.4282C25.4303 30.0862 23.7711 28.3898 23.7711 26.2694V23.4775C23.7711 13.1936 31.7964 4.85326 41.6163 4.85326C51.4363 4.85326 59.4615 13.2289 59.4615 23.4775V26.2694C59.4954 27.7184 60.0372 29.0966 61.0531 30.0862ZM41.6163 3.40432C40.3296 3.40432 39.0767 3.54568 37.8238 3.79306C38.3656 2.94489 38.9074 2.23809 39.6185 1.99071C40.5327 1.67265 41.6502 2.13207 42.8692 2.62683C43.8512 3.01557 44.9348 3.43966 45.9845 3.43966C47.0004 3.43966 48.0501 2.98023 49.0659 2.55615C50.285 2.06139 51.4024 1.56663 52.3505 1.84935C53.1971 2.13207 53.8743 3.19228 54.5854 4.28782C55.1949 5.27735 55.8383 6.26687 56.7187 6.93834C57.5991 7.57446 58.7166 7.89252 59.8002 8.17524C61.0192 8.49331 62.2044 8.81137 62.7461 9.55351C63.3218 10.3663 63.2541 11.6386 63.1864 13.0168C63.1186 14.1477 63.0848 15.314 63.3895 16.3388C63.7281 17.3637 64.4392 18.2825 65.1503 19.166C65.9969 20.1909 66.7757 21.1804 66.7757 22.17C66.7757 23.1241 66.0308 24.1137 65.2181 25.1739C64.5408 26.0574 63.8297 27.0116 63.4911 28.0718C63.3218 28.5665 63.2541 29.1673 63.2879 29.9095C61.8657 29.3794 60.8837 27.9304 60.8837 26.3401V23.5129C60.8499 12.3807 52.2151 3.40432 41.6163 3.40432ZM66.2339 18.1765C65.5905 17.3637 64.981 16.6215 64.7101 15.8441C64.4731 15.1019 64.507 14.1124 64.5747 13.0522C64.5747 12.8048 64.6086 12.5574 64.6086 12.31C66.5048 14.9252 67.69 17.9645 68.0625 21.1804C67.7577 20.0849 66.9789 19.0954 66.2339 18.1765ZM64.8456 28.4605C65.0826 27.683 65.726 26.8702 66.3355 26.0574C67.1821 24.9618 68.0286 23.831 68.1641 22.5234C68.1641 22.8414 68.1979 23.1595 68.1979 23.4775V26.2694C68.1979 28.3192 66.6403 29.9801 64.7101 30.0862C64.7101 29.5561 64.7101 28.9553 64.8456 28.4605Z" fill="#002A73"/>
<path d="M51.0299 18.353C50.1833 18.353 49.5061 19.0598 49.5061 19.9433C49.5061 20.8268 50.1833 21.5336 51.0299 21.5336C51.8764 21.5336 52.5537 20.8268 52.5537 19.9433C52.5537 19.0598 51.8764 18.353 51.0299 18.353Z" fill="#F56B00"/>
<path d="M54.0775 23.2656C53.2309 23.2656 52.5537 23.9724 52.5537 24.8559C52.5537 25.7394 53.2309 26.4462 54.0775 26.4462C54.924 26.4462 55.6013 25.7394 55.6013 24.8559C55.5674 23.9724 54.8902 23.2656 54.0775 23.2656Z" fill="#F56B00"/>
<path d="M48.1178 23.2656C47.2712 23.2656 46.594 23.9724 46.594 24.8559C46.594 25.7394 47.2712 26.4462 48.1178 26.4462C48.9643 26.4462 49.6416 25.7394 49.6416 24.8559C49.6416 23.9724 48.9643 23.2656 48.1178 23.2656Z" fill="#F56B00"/>
<path d="M9.10886 11.7094C8.83796 11.4266 8.39776 11.4266 8.12686 11.7094L0.203172 19.979C0.0677238 20.085 0 20.297 0 20.4737C0 20.6504 0.0677238 20.8625 0.203172 21.0038L8.12686 29.2734C8.26231 29.4148 8.43162 29.4855 8.63479 29.4855C8.83796 29.4855 9.00727 29.4148 9.14272 29.2734C9.41361 28.9907 9.41361 28.5313 9.14272 28.2486L1.6931 20.4737L9.10886 12.7342C9.37975 12.4515 9.37975 11.9921 9.10886 11.7094Z" fill="#002A73"/>
<path d="M82.7924 19.979L74.8688 11.7094C74.5979 11.4266 74.1577 11.4266 73.8868 11.7094C73.7513 11.8507 73.6836 12.0274 73.6836 12.2395C73.6836 12.4515 73.7513 12.6282 73.8868 12.7696L81.3025 20.5091L73.8868 28.2486C73.6159 28.5313 73.6159 28.9907 73.8868 29.2734C74.0222 29.4148 74.1915 29.4855 74.3947 29.4855C74.5979 29.4855 74.7672 29.4148 74.9026 29.2734L82.8263 21.0038C83.0633 20.7211 83.0633 20.2617 82.7924 19.979Z" fill="#002A73"/>
<path d="M19.4368 8.21052C19.2675 8.17518 19.0643 8.21052 18.895 8.31654C18.7257 8.42256 18.6241 8.59926 18.5902 8.77596L13.5448 31.8531C13.5109 32.0298 13.5448 32.2419 13.6464 32.4186C13.748 32.5953 13.9173 32.7013 14.0866 32.7366C14.1543 32.7366 14.1882 32.772 14.2559 32.772C14.5945 32.772 14.8654 32.5246 14.9331 32.2065L19.9786 9.09402C20.0124 8.91732 19.9786 8.70528 19.877 8.52858C19.7754 8.38722 19.6399 8.24586 19.4368 8.21052Z" fill="#002A73"/>
</svg>
